<svg width="80" height="65" viewBox="0 0 80 65" fill="none" xmlns="http://www.w3.org/2000/svg">
<path d="M70.5888 44.5866H29.0503C28.6626 44.5864 28.2831 44.4751 27.9567 44.2659C27.6302 44.0567 27.3705 43.7584 27.2083 43.4063L15.1996 17.2519C14.6805 16.122 13.8481 15.1646 12.8013 14.4934C11.7545 13.8222 10.5371 13.4653 9.29362 13.4651H2.20734C1.92235 13.452 1.63765 13.4968 1.37046 13.5968C1.10327 13.6968 0.859135 13.85 0.65281 14.047C0.446486 14.2441 0.282259 14.4809 0.170055 14.7432C0.0578505 15.0055 0 15.2878 0 15.5731C0 15.8584 0.0578505 16.1408 0.170055 16.4031C0.282259 16.6654 0.446486 16.9022 0.65281 17.0992C0.859135 17.2963 1.10327 17.4494 1.37046 17.5494C1.63765 17.6495 1.92235 17.6943 2.20734 17.6811H9.29362C9.73135 17.6834 10.1593 17.8109 10.5269 18.0486C10.8945 18.2863 11.1864 18.6242 11.3681 19.0224L23.3723 45.1768C23.8719 46.263 24.6721 47.1834 25.6783 47.8291C26.6846 48.4749 27.8547 48.8189 29.0503 48.8205H70.5888C73.6424 48.8205 74.7423 50.1618 74.7423 50.1618C75.3771 50.8279 75.8376 52.5671 75.1536 53.4881C74.1387 54.8517 72.8332 55.1691 71.0136 55.1691H26.3767C25.817 55.1691 25.2803 55.3915 24.8845 55.7872C24.4888 56.1829 24.2665 56.7197 24.2665 57.2794C24.2665 57.839 24.4888 58.3758 24.8845 58.7715C25.2803 59.1673 25.817 59.3896 26.3767 59.3896H34.0889C33.6464 59.9067 33.4023 60.5644 33.4004 61.245C33.4699 61.9676 33.8061 62.6383 34.3434 63.1264C34.8807 63.6145 35.5805 63.8849 36.3064 63.8849C37.0323 63.8849 37.7322 63.6145 38.2695 63.1264C38.8068 62.6383 39.143 61.9676 39.2125 61.245C39.2099 60.5653 38.9677 59.9083 38.5284 59.3896H62.7738C62.5182 59.701 62.3295 60.0617 62.2194 60.4492C62.1044 60.8173 62.0629 61.2045 62.0975 61.5886C62.132 61.9728 62.2419 62.3463 62.4208 62.688C62.5998 63.0297 62.8443 63.3328 63.1403 63.58C63.4364 63.8272 63.7782 64.0136 64.1464 64.1287C64.5145 64.2438 64.9017 64.2852 65.2858 64.2506C65.6699 64.2161 66.0435 64.1062 66.3852 63.9273C66.7269 63.7483 67.0299 63.5039 67.2771 63.2078C67.5243 62.9117 67.7108 62.5699 67.8259 62.2018C67.9897 61.729 68.0293 61.2221 67.9408 60.7296C67.8523 60.2372 67.6388 59.7758 67.3207 59.3896H71.0359C74.9121 59.3896 77.8048 57.9589 79.383 54.6773C80.0058 53.1724 80.1615 51.515 79.8301 49.9204C78.927 46.0441 74.8272 44.5062 70.5888 44.5866Z" fill="#2E1E0F"/>
<path d="M68.6481 36.2844C67.7539 28.5901 66.7838 20.9003 65.8941 13.2059C65.5275 10.0048 64.7406 9.13747 61.6021 9.07488C60.6811 9.07488 60.3145 8.77087 60.2161 7.84093C60.1203 6.79714 59.8163 5.78315 59.3219 4.85888C58.3964 3.2602 57.0353 1.95774 55.3974 1.10357C53.7595 0.249388 51.9124 -0.121277 50.0718 0.0348433C45.6009 0.535577 42.6681 2.97219 41.6532 7.2776C41.3447 8.58309 40.996 9.19559 39.4759 9.09724C37.3746 8.96311 36.2569 10.1524 35.9976 12.3073C35.8366 13.6038 35.6533 14.9004 35.5013 16.2014C34.6071 23.6364 33.713 31.0714 32.8814 38.5154C32.6266 40.8 33.4268 41.6002 35.698 41.6047C40.7858 41.6047 45.8737 41.6047 50.957 41.6047C56.0448 41.6047 61.1326 41.6047 66.2204 41.6047C68.1563 41.6047 68.7062 41.0861 68.7509 39.262C68.788 38.2683 68.7536 37.2732 68.6481 36.2844ZM56.6841 9.06594C55.7125 9.06594 54.7423 9.06594 53.7736 9.06594H49.495C48.118 9.06594 46.741 9.06594 45.364 9.06594C44.3759 9.09724 44.0227 8.77981 44.2507 7.78281C44.8677 4.78288 47.7246 2.69946 51.1627 2.78441C54.413 2.89618 57.0239 5.08689 57.5425 8.04212C57.6677 8.86922 57.4308 9.07488 56.6841 9.06594Z" fill="url(#paint0_linear_207_5)"/>
<path d="M58.5703 39.3918C58.437 39.2653 58.3306 39.1132 58.2574 38.9447C57.6091 37.6705 56.9519 36.3963 56.3081 35.1221C56.2455 34.997 56.2142 34.9746 56.0935 35.0774C55.4542 35.6273 54.8014 36.1728 54.1531 36.7182C54.0973 36.7819 54.0286 36.8329 53.9515 36.8678C53.8744 36.9027 53.7907 36.9208 53.7061 36.9208C53.6214 36.9208 53.5377 36.9027 53.4606 36.8678C53.3835 36.8329 53.3148 36.7819 53.259 36.7182C53.163 36.5894 53.1141 36.4316 53.1204 36.2711L52.7851 30.012C52.6986 28.3995 52.6107 26.787 52.5213 25.1745C52.5052 25.0876 52.5094 24.9981 52.5335 24.913C52.5575 24.8279 52.6008 24.7495 52.6601 24.6838C52.7193 24.6181 52.7928 24.5669 52.8749 24.5342C52.9571 24.5014 53.0456 24.488 53.1338 24.4949C53.2886 24.511 53.4335 24.5787 53.5451 24.6872L57.6225 28.0448L62.299 31.8942C62.5762 32.1222 62.6522 32.3413 62.5449 32.6006C62.5007 32.6958 62.4326 32.778 62.3472 32.8391C62.2618 32.9003 62.162 32.9382 62.0576 32.9493L59.5584 33.4277L59.3661 33.4679L59.4466 33.6378L61.4496 37.5453C61.6686 37.9924 61.5703 38.2428 61.1277 38.4395L59.3393 39.289C59.1714 39.3802 58.9879 39.4393 58.7983 39.4633L58.5703 39.3918Z" fill="white"/>
<path d="M48.2744 24.1464C48.3847 24.0244 48.5326 23.9427 48.6946 23.9144C48.8566 23.886 49.0234 23.9126 49.1686 23.9899C49.6604 24.1688 50.1656 24.3118 50.6618 24.4817C50.7527 24.5051 50.8361 24.5514 50.904 24.6161C50.9719 24.6808 51.0222 24.7618 51.05 24.8515C51.0778 24.9411 51.0822 25.0363 51.0627 25.1281C51.0433 25.2199 51.0007 25.3052 50.939 25.3759C50.8761 25.4591 50.7894 25.5212 50.6904 25.5539C50.5914 25.5866 50.4847 25.5885 50.3846 25.5592C49.7632 25.367 49.1507 25.1613 48.5382 24.9556C48.2923 24.8707 48.2342 24.6472 48.1895 24.4281L48.2744 24.1464Z" fill="white"/>
<path d="M52.7323 23.4083C52.6955 23.5063 52.633 23.5926 52.5514 23.6583C52.4698 23.7239 52.3721 23.7665 52.2684 23.7816C52.1648 23.7966 52.059 23.7836 51.9621 23.7439C51.8652 23.7042 51.7807 23.6393 51.7175 23.5558C51.6788 23.5028 51.6458 23.4459 51.6191 23.3859C51.3687 22.9031 51.1184 22.4202 50.8769 21.9329C50.8179 21.8314 50.7951 21.7129 50.8121 21.5968C50.8292 21.4807 50.8851 21.3738 50.9708 21.2936C51.0522 21.2119 51.1558 21.156 51.2687 21.1329C51.3816 21.1099 51.4989 21.1206 51.6057 21.1639C51.7396 21.215 51.8486 21.3159 51.9097 21.4456L52.6921 22.9701C52.7294 23.0362 52.7523 23.1094 52.7592 23.1849C52.7661 23.2604 52.757 23.3365 52.7323 23.4083V23.4083Z" fill="white"/>
<path d="M55.5173 22.3757C55.4279 22.635 55.3385 22.8943 55.2446 23.1536C55.2238 23.23 55.1876 23.3013 55.1381 23.3631C55.0886 23.4249 55.0269 23.4758 54.9569 23.5127C54.8868 23.5496 54.8099 23.5717 54.731 23.5776C54.652 23.5835 54.5727 23.5731 54.498 23.547C54.4233 23.5235 54.3545 23.4845 54.2958 23.4326C54.2372 23.3807 54.1902 23.3171 54.1577 23.2458C54.1253 23.1746 54.1081 23.0974 54.1074 23.0191C54.1068 22.9408 54.1225 22.8633 54.1537 22.7915C54.337 22.2684 54.5203 21.7408 54.7126 21.2177C54.756 21.0812 54.8488 20.9657 54.9728 20.8938C55.0967 20.8219 55.243 20.7987 55.3832 20.8288C55.5094 20.8537 55.6231 20.9217 55.7046 21.0212C55.7862 21.1207 55.8306 21.2455 55.8303 21.3742C55.8264 21.4605 55.8067 21.5454 55.7721 21.6246C55.6961 21.8749 55.6067 22.1208 55.5173 22.3757Z" fill="white"/>
<path d="M58.6786 23.7837C58.6548 23.8568 58.6158 23.9241 58.5642 23.9811C58.5125 24.0381 58.4494 24.0836 58.379 24.1145C57.847 24.3693 57.315 24.6242 56.7829 24.8701C56.6462 24.9402 56.4874 24.9543 56.3405 24.9092C56.1935 24.8641 56.0699 24.7634 55.9961 24.6287C55.9618 24.5629 55.9416 24.4907 55.9367 24.4167C55.9318 24.3427 55.9423 24.2685 55.9675 24.1988C55.9927 24.129 56.0321 24.0653 56.0832 24.0115C56.1343 23.9578 56.1959 23.9152 56.2643 23.8865C56.8008 23.6227 57.3462 23.3679 57.8872 23.113C57.9905 23.0612 58.1073 23.0424 58.2217 23.0592C58.3361 23.076 58.4425 23.1276 58.5265 23.2069C58.6076 23.2761 58.6656 23.3684 58.6928 23.4715C58.72 23.5746 58.715 23.6835 58.6786 23.7837V23.7837Z" fill="white"/>
<path d="M51.0236 27.4856C50.9658 27.6139 50.8622 27.716 50.733 27.7717L49.1369 28.5273C48.9999 28.5977 48.8406 28.6109 48.6939 28.564C48.5472 28.517 48.4251 28.4138 48.3545 28.2769C48.3204 28.2112 48.3005 28.139 48.2959 28.0652C48.2914 27.9913 48.3023 27.9173 48.3279 27.8478C48.3536 27.7784 48.3935 27.7151 48.445 27.6619C48.4965 27.6088 48.5586 27.567 48.6272 27.5392C49.1577 27.2799 49.6942 27.0251 50.2367 26.7747C50.339 26.7199 50.4557 26.6981 50.5709 26.7122C50.6861 26.7262 50.7941 26.7755 50.8802 26.8533C50.9663 26.9311 51.0263 27.0336 51.0519 27.1468C51.0776 27.2599 51.0677 27.3782 51.0236 27.4856V27.4856Z" fill="white"/>
<defs>
<linearGradient id="paint0_linear_207_5" x1="32.8367" y1="20.8019" x2="68.7644" y2="20.8019" gradientUnits="userSpaceOnUse">
<stop offset="0.01" stop-color="#F7BE5B"/>
<stop offset="0.19" stop-color="#ECB25C"/>
<stop offset="0.8" stop-color="#D26D00"/>
<stop offset="0.98" stop-color="#F5B45C"/>
<stop offset="1" stop-color="#F8BA63"/>
</linearGradient>
</defs>
</svg>
