<svg width="254" height="1255" viewBox="0 0 254 1255" fill="none" xmlns="http://www.w3.org/2000/svg">
<g clip-path="url(#clip0_202_3)">
<path d="M93.865 1255L72.565 1240.9C50.865 1226.8 8.86497 1199 24.565 1170C40.865 1142.1 114.865 1114 136.565 1086C157.865 1057.4 125.865 1029 93.865 1001C61.865 972.6 29.865 944 13.865 916C-2.13503 887.9 -2.13502 860 3.16498 831C8.86498 803.2 18.865 775 56.565 747C93.865 718.5 157.865 690 179.165 662C200.865 633.8 178.865 606 157.865 577C136.865 549.1 114.865 521 93.865 493C72.865 464.4 50.865 436 61.865 408C72.865 379.7 114.865 351 141.865 323C168.865 295 178.865 267 189.865 239C200.865 210.3 210.865 182 184.565 154C157.865 125.6 93.865 97 88.565 69C82.865 40.9 136.865 13 125.865 -16C114.865 -43.8 40.865 -72 40.565 -100C40.865 -128.5 114.865 -157 152.565 -171L189.865 -185H253.865L253.865 1255H93.865Z" fill="url(#paint0_linear_202_3)"/>
</g>
<defs>
<linearGradient id="paint0_linear_202_3" x1="6.10352e-05" y1="535" x2="253.865" y2="535" gradientUnits="userSpaceOnUse">
<stop stop-color="#8BB0F0"/>
<stop offset="1" stop-color="#3880FF"/>
</linearGradient>
<clipPath id="clip0_202_3">
<rect width="253.865" height="1440" fill="white" transform="translate(0 -185)"/>
</clipPath>
</defs>
</svg>
