<svg width="1921" height="1076" viewBox="0 0 1921 1076" fill="none" xmlns="http://www.w3.org/2000/svg">
<path opacity="0.11" d="M1920.18 468.234C1920.18 468.234 1819.75 228.29 1518.97 276.757C1218.2 325.224 1076.91 267.18 981.345 161.816C885.781 56.4497 629.251 67.4897 400.361 109.442C171.461 151.397 37.1906 67.6496 0.000610352 -0.000366211C-0.0193896 -0.0103662 0.370605 1075.61 0.370605 1075.61L1920.14 1075.64L1920.18 468.234Z" fill="url(#paint0_linear_209_26)"/>
<path d="M1920.12 468.082C1920.12 468.082 1824.85 263.889 1518.91 306.935C1212.97 349.981 1099.26 339.035 974.724 210.043C850.191 81.0507 630.751 102.503 401.811 142.977C172.881 183.451 41.6206 74.8196 0.0206299 0.00964355C-0.0193701 2.40964 0.100708 1075.63 0.100708 1075.63L1920.1 1075.62L1920.12 468.082Z" fill="url(#paint1_linear_209_26)"/>
<defs>
<linearGradient id="paint0_linear_209_26" x1="960.089" y1="1075.64" x2="960.089" y2="-0.000366211" gradientUnits="userSpaceOnUse">
<stop stop-color="#FFA500"/>
<stop offset="1" stop-color="#C88A18"/>
</linearGradient>
<linearGradient id="paint1_linear_209_26" x1="960.069" y1="1075.63" x2="960.069" y2="0.00964355" gradientUnits="userSpaceOnUse">
<stop stop-color="#FFA500"/>
<stop offset="1" stop-color="#E9BF72"/>
</linearGradient>
</defs>
</svg>
